# xmcd
#
# Track frame offsets:
#	150
#	14285
#	32290
#	49841
#	66853
#	79518
#	94825
#	107863
#	124276
#	137971
#	156195
#	170212
#	184561
#	195800
#
# Disc length: 2827 seconds
# Revision: 0
# Processed by: cddbd v1.5.2PL0 Copyright (c) Steve Scherf et al.
# Submitted via: dBpowerAMP V12.0
#
DISCID=b50b090e
DTITLE=Detour - A Better Place
DYEAR=2012
DGENRE=Country
TTITLE0=Quarterline Road
TTITLE1=Wind in the Willows
TTITLE2=Banjo Warning
TTITLE3=A Better Place
TTITLE4=I'll Go Stepping Too
TTITLE5=Everybody Wants to Go to Heaven
TTITLE6=Everything Is Nothing As It Seems
TTITLE7=Rella's Waltz
TTITLE8=Lovin' Liza Jane
TTITLE9=I've Just Seen the Rock of Ages
TTITLE10=The Letter
TTITLE11=Put a Little Love in Your Heart
TTITLE12=Big Shake and Howdy
TTITLE13=Homeless of the Brave
EXTD=
EXTT0=
EXTT1=
EXTT2=
EXTT3=
EXTT4=
EXTT5=
EXTT6=
EXTT7=
EXTT8=
EXTT9=
EXTT10=
EXTT11=
EXTT12=
EXTT13=
PLAYORDER=
